<?xml version="1.0" encoding="utf-8"?>
<!-- Generator: Adobe Illustrator 20.1.0, SVG Export Plug-In . SVG Version: 6.00 Build 0)  -->
<svg version="1.1" id="Layer_1" xmlns="http://www.w3.org/2000/svg" xmlns:xlink="http://www.w3.org/1999/xlink" x="0px" y="0px"
	 viewBox="0 0 134.7 104.8" style="enable-background:new 0 0 134.7 104.8;" xml:space="preserve">
<style type="text/css">
	.st0{fill:#FFFFFF;}
</style>
<g>
	<g>
		<path class="st0" d="M50.4,0C56.2,1.1,62,2.7,67.7,4.3c3.3,1,6.5,1.9,9.8,3c5.1,1.6,10.2,3.5,14.8,6.2c2.1,1.3,4.1,2.7,5.8,4.4
			c1.8,1.8,3.3,3.9,4.5,6.3c2,4.2,2.7,8.9,2.9,13.5c0.1,3,0.1,6.1-0.5,9c-0.5,2.6-1.3,5.1-2.7,7.4c-1.2,2-2.9,3.7-5,4.8
			c-2,1.1-4.2,1.6-6.5,1.5c-3.4,0-6.7-1-9.8-2.5c-0.1-10.2,0-20.3,0-30.5c0-1.8,0.1-3.7-0.3-5.5c-0.3-1.4-0.8-2.8-1.9-3.8
			c-0.7-0.7-1.7-1-2.6-1.2c-1-0.2-2,0.2-2.6,1c-1,1.2-1.3,2.9-1.3,4.4c0,27.2,0,54.4,0,81.5c-7.3-2.3-14.6-4.6-21.9-7
			C50.4,64.7,50.4,32.3,50.4,0z"/>
		<path class="st0" d="M17.5,68.8C27,65.4,36.6,62,46.1,58.6c0,3.7,0,7.5,0,11.2c0,0.5,0,1,0,1.5c-7.5,2.7-15.1,5.4-22.6,8.1
			c-1,0.4-2.1,0.8-2.9,1.6c-0.4,0.4-0.7,0.9-0.5,1.5c0.3,0.6,0.9,1,1.5,1.2c1.7,0.7,3.5,0.8,5.2,0.8c2,0,3.9-0.2,5.9-0.6
			c1.3-0.3,2.5-0.7,3.8-1.2c3.2-1.2,6.4-2.3,9.7-3.5c0,3.2,0,6.3,0,9.5c0,0.6,0,1.3,0,1.9c-4,0.7-8,1.2-12,1.3
			C26,92.2,17.9,91,10.2,88.5c-2.5-0.7-5-1.7-7.1-3.3c-1.2-0.9-2.2-2-2.7-3.4c-0.4-1.2-0.4-2.5,0.1-3.7c0.5-1.1,1.5-2,2.5-2.7
			c2.4-1.6,5-2.9,7.6-4C12.8,70.4,15.2,69.6,17.5,68.8z"/>
		<path class="st0" d="M94.2,64.5c2.2-0.2,4.3-0.3,6.5-0.4c7.2,0,14.3,0.9,21.2,3.1c1.3,0.4,2.6,0.9,4,1.4c2.4,0.9,4.8,1.9,6.7,3.6
			c1.1,1,2.1,2.5,2.1,4.1c0.1,1.3-0.5,2.6-1.4,3.5c-1.6,1.8-3.8,3.1-5.9,4.1c-2.3,1.2-4.7,1.9-7.1,2.8
			c-14.6,5.2-29.2,10.5-43.8,15.7c0-4.1,0-8.2,0-12.3c0-0.2-0.1-0.4,0.2-0.5c11.1-4,22.2-7.9,33.3-11.9c1.5-0.6,3.1-1,4.4-2
			c0.5-0.4,1-1.1,0.8-1.8c-0.3-0.6-0.9-1-1.5-1.2c-1.7-0.7-3.5-0.8-5.2-0.8c-2.8,0-5.6,0.4-8.2,1.2c-7.9,2.8-15.8,5.6-23.7,8.3
			c0-4.4,0-8.8,0-13.2C82.2,66.4,88.2,65.2,94.2,64.5z"/>
	</g>
</g>
</svg>
